<?xml version="1.0" encoding="utf-8"?>
<!-- Generator: Adobe Illustrator 24.2.1, SVG Export Plug-In . SVG Version: 6.00 Build 0)  -->
<svg version="1.1" id="Capa_1" xmlns="http://www.w3.org/2000/svg" xmlns:xlink="http://www.w3.org/1999/xlink" x="0px" y="0px"
	 viewBox="0 0 309.4 67.8" style="enable-background:new 0 0 309.4 67.8;" xml:space="preserve">
<style type="text/css">
	.st0{fill:#D9D9D9;}
	.st1{fill:none;}
	.st2{fill:#226C68;}
	.st3{fill:#113836;}
	.st4{fill:#508481;}
</style>
<path class="st0" d="M10.9,0h5.9l12.1,67.8h-5.6l-2.2-13.8H7.5l-2,13.8H0L10.9,0z M20.3,49.3L14,10.9H14L8.2,49.3L20.3,49.3z"/>
<path class="st0" d="M53,0h18.6v3.9L58.5,63.3h12.9v4.5H52.7V63l13-58.6H53V0z"/>
<path class="st0" d="M98.5,0h11.5c4.7,0,7.8,1,9.3,2.9c1.2,1.6,2,3.4,2.3,5.4c0.4,3.1,0.5,6.1,0.5,9.2c0.1,3.4-0.4,6.7-1.4,9.9
	c-0.7,2.3-2.5,4.1-4.8,4.8c0.8,0.1,1.6,0.4,2.3,0.8c0.7,0.5,1.3,1.2,1.6,2c1.5,2.9,2.3,10.2,2.3,21.8c0,4.8,0,7.6,0.1,8.3
	c0.1,0.9,0.4,1.8,0.7,2.7h-5.7c-0.5-1.4-0.8-2.9-0.7-4.4c-0.1-2.1-0.1-5.6-0.1-10.3v-7.4c0-4.7-0.3-7.7-0.9-9s-2.3-1.9-5.1-1.9
	l-6.1-0.4v33.5h-5.8L98.5,0z M116.4,16.4c0.1-2.5-0.1-5-0.5-7.5c-0.1-1.2-0.7-2.4-1.6-3.2c-1.1-0.7-2.3-1-3.6-0.9h-6.4v25.8h6
	c2,0,3.3-0.3,4-1c0.8-0.9,1.4-2.1,1.6-3.3c0.5-3.1,0.6-6.2,0.5-9.3V16.4z"/>
<path class="st0" d="M201.2,0h17.9v4.5H207V31h11.5v4.7H207v27.6H219v4.5h-17.8V0z"/>
<path class="st0" d="M241.3,0h19.2v4.5h-6.4v63.4h-5.7V4.5h-7.1L241.3,0z"/>
<path class="st0" d="M303.7,0h5.8v67.8h-5.8V33.7h-12.4v34.2h-5.7V0h5.7v29.4h12.4V0z"/>
<g>
	<polygon class="st1" points="172.8,51.7 160.3,23.8 163.5,15.9 160.2,23.9 154.5,37.3 150.8,46.5 148.7,51.7 160.3,51.7 	"/>
	<polygon class="st2" points="171.7,19.4 163.4,0.1 163.4,0.1 163.4,0.1 149.3,35.5 142.9,51.7 144.9,51.7 148.7,51.7 150.8,46.5 
		154.5,37.3 160.2,23.9 163.5,15.9 164.8,19 178.4,50.2 185.8,67.6 189,58.8 	"/>
	<polygon class="st3" points="164.8,19 163.5,15.9 160.3,23.8 172.8,51.7 172.9,51.7 176.6,60.1 142.8,60.2 132.5,60.2 136.2,67.6 
		148.2,67.6 171.9,67.8 185.8,67.6 178.4,50.2 	"/>
	<polygon class="st4" points="176.6,60.1 172.9,51.7 172.8,51.7 160.3,51.7 148.7,51.7 144.9,51.7 142.9,51.7 149.3,35.5 163.4,0.1 
		163.4,0.1 156.8,0.1 139.9,42.2 132.5,60.2 142.8,60.2 	"/>
</g>
</svg>
