<?xml version="1.0" standalone="no"?>
<!DOCTYPE svg PUBLIC "-//W3C//DTD SVG 1.1//EN" "http://www.w3.org/Graphics/SVG/1.1/DTD/svg11.dtd">
<svg xmlns="http://www.w3.org/2000/svg" viewBox="0 0 309.43 67.84" width="309.42999267578125" height="67.83999633789062"><path d="M106.19,216.08h5.86l12.07,67.84h-5.55l-2.24-13.76H102.76l-2,13.76H95.28Zm9.37,49.34L109.32,227h-.08l-5.75,38.39Z" transform="translate(-95.28 -216.08)" style="fill:#161616"/><path d="M148.31,216.08h18.58V220l-13.15,59.36h12.92v4.55H148V279.1L161,220.55H148.31Z" transform="translate(-95.28 -216.08)" style="fill:#161616"/><path d="M193.81,216.08h11.53q7,0,9.33,2.93a11,11,0,0,1,2.25,5.38,64.54,64.54,0,0,1,.49,9.23,29.16,29.16,0,0,1-1.41,9.89,7,7,0,0,1-4.84,4.76,6.15,6.15,0,0,1,2.28.82,5.22,5.22,0,0,1,1.65,2q2.28,4.42,2.28,21.82,0,7.2.13,8.3a12.32,12.32,0,0,0,.72,2.68h-5.71a11.22,11.22,0,0,1-.73-4.37c-.08-2.15-.12-5.57-.12-10.28V261.8q0-7.1-.86-9t-5.15-1.93l-6.09-.39v33.46h-5.75Zm17.85,16.38a42.18,42.18,0,0,0-.48-7.52,5.14,5.14,0,0,0-1.62-3.23,6,6,0,0,0-3.6-.85h-6.44v25.75h6c2,0,3.29-.34,4-1a6.55,6.55,0,0,0,1.6-3.34,50.62,50.62,0,0,0,.54-9.31Z" transform="translate(-95.28 -216.08)" style="fill:#161616"/><path d="M296.51,216.08h17.92v4.47H302.25v26.52H313.7v4.66H302.25v27.64h12.07v4.55H296.51Z" transform="translate(-95.28 -216.08)" style="fill:#161616"/><path d="M336.58,216.08h19.16v4.47h-6.36v63.37h-5.71V220.55h-7.09Z" transform="translate(-95.28 -216.08)" style="fill:#161616"/><path d="M399,216.08h5.75v67.84H399V249.77H386.56v34.15h-5.74V216.08h5.74v29.37H399Z" transform="translate(-95.28 -216.08)" style="fill:#161616"/><polyline points="160.1 8.33 142.83 51.7 148.65 51.7 150.78 46.47 154.47 37.34 160.23 23.87 163.5 15.88 168.7 28.17 185.81 67.57 188.97 58.78 171.68 19.44 163.4 0.05 162.11 3.3" style="fill:#226c68"/><polyline points="176.46 59.85 132.47 60.18 136.16 67.59 148.15 67.59 171.94 67.79 185.81 67.64 178.4 50.21 164.82 18.98 163.5 15.95 160.31 23.77" style="fill:#113836"/><polygon points="139.89 42.18 156.76 0.15 163.38 0.15 149.3 35.52 142.85 51.7 144.91 51.7 160.25 51.7 172.87 51.7 176.57 60.05 142.76 60.25 132.51 60.25 139.89 42.18" style="fill:#508481"/></svg>