<svg width="44" height="41" viewBox="0 0 44 41" fill="none" xmlns="http://www.w3.org/2000/svg">
<path d="M13.0583 0.646912H31.1975C38.1077 0.646912 43.7222 5.83505 43.7222 12.2204V28.9821C43.7222 32.0516 42.4026 34.9954 40.0538 37.1658C37.7049 39.3363 34.5192 40.5556 31.1975 40.5556H13.0583C6.14814 40.5556 0.53363 35.3675 0.53363 28.9821V12.2204C0.53363 9.15095 1.85319 6.20718 4.20202 4.03672C6.55085 1.86626 9.73655 0.646912 13.0583 0.646912ZM12.6264 4.63778C10.5646 4.63778 8.58731 5.39462 7.12942 6.7418C5.67152 8.08898 4.85248 9.91615 4.85248 11.8214V29.3812C4.85248 33.3521 8.32916 36.5648 12.6264 36.5648H31.6294C33.6911 36.5648 35.6685 35.8079 37.1264 34.4607C38.5843 33.1136 39.4033 31.2864 39.4033 29.3812V11.8214C39.4033 7.85044 35.9266 4.63778 31.6294 4.63778H12.6264ZM33.4649 7.63094C34.1808 7.63094 34.8674 7.89373 35.3736 8.3615C35.8798 8.82927 36.1642 9.4637 36.1642 10.1252C36.1642 10.7868 35.8798 11.4212 35.3736 11.889C34.8674 12.3567 34.1808 12.6195 33.4649 12.6195C32.749 12.6195 32.0624 12.3567 31.5562 11.889C31.05 11.4212 30.7656 10.7868 30.7656 10.1252C30.7656 9.4637 31.05 8.82927 31.5562 8.3615C32.0624 7.89373 32.749 7.63094 33.4649 7.63094ZM22.1279 10.6241C24.9915 10.6241 27.7378 11.6753 29.7626 13.5463C31.7875 15.4174 32.925 17.9552 32.925 20.6013C32.925 23.2474 31.7875 25.7851 29.7626 27.6562C27.7378 29.5273 24.9915 30.5785 22.1279 30.5785C19.2643 30.5785 16.518 29.5273 14.4932 27.6562C12.4683 25.7851 11.3308 23.2474 11.3308 20.6013C11.3308 17.9552 12.4683 15.4174 14.4932 13.5463C16.518 11.6753 19.2643 10.6241 22.1279 10.6241ZM22.1279 14.615C20.4097 14.615 18.762 15.2457 17.5471 16.3683C16.3321 17.491 15.6496 19.0136 15.6496 20.6013C15.6496 22.1889 16.3321 23.7116 17.5471 24.8342C18.762 25.9569 20.4097 26.5876 22.1279 26.5876C23.846 26.5876 25.4938 25.9569 26.7087 24.8342C27.9236 23.7116 28.6062 22.1889 28.6062 20.6013C28.6062 19.0136 27.9236 17.491 26.7087 16.3683C25.4938 15.2457 23.846 14.615 22.1279 14.615Z" fill="#0D0D0D"/>
</svg>
