<svg width="44" height="41" viewBox="0 0 44 41" fill="none" xmlns="http://www.w3.org/2000/svg">
<path d="M38.8337 0.646912C40.1064 0.646912 41.3269 1.1141 42.2269 1.94569C43.1268 2.77728 43.6324 3.90516 43.6324 5.08121V36.1213C43.6324 37.2974 43.1268 38.4253 42.2269 39.2569C41.3269 40.0884 40.1064 40.5556 38.8337 40.5556H5.24257C3.96987 40.5556 2.7493 40.0884 1.84936 39.2569C0.949426 38.4253 0.443848 37.2974 0.443848 36.1213V5.08121C0.443848 3.90516 0.949426 2.77728 1.84936 1.94569C2.7493 1.1141 3.96987 0.646912 5.24257 0.646912H38.8337ZM37.634 35.0128V23.2619C37.634 21.3449 36.8099 19.5064 35.343 18.1509C33.8761 16.7955 31.8866 16.0339 29.812 16.0339C27.7726 16.0339 25.3972 17.1869 24.2455 18.9162V16.4552H17.5513V35.0128H24.2455V24.0822C24.2455 22.375 25.7331 20.9782 27.5806 20.9782C28.4715 20.9782 29.3259 21.3052 29.9559 21.8873C30.5858 22.4694 30.9397 23.259 30.9397 24.0822V35.0128H37.634ZM9.75338 12.9743C10.8224 12.9743 11.8477 12.5818 12.6037 11.8833C13.3596 11.1848 13.7843 10.2373 13.7843 9.24946C13.7843 7.18751 11.9848 5.50247 9.75338 5.50247C8.67794 5.50247 7.64656 5.89724 6.88611 6.59994C6.12567 7.30264 5.69845 8.2557 5.69845 9.24946C5.69845 11.3114 7.52197 12.9743 9.75338 12.9743ZM13.0885 35.0128V16.4552H6.44225V35.0128H13.0885Z" fill="#0D0D0D"/>
</svg>
